<svg width="77" height="30" viewBox="0 0 77 30" fill="none" xmlns="http://www.w3.org/2000/svg">
<g clip-path="url(#clip0_43_2)">
<path d="M41 5.94501L40.465 6.87501C40.345 7.08001 40.445 7.25001 40.68 7.25001H41.315C41.555 7.25001 41.65 7.42001 41.53 7.62501L41 8.55501" stroke="#292D32" stroke-width="0.9" stroke-linecap="round" stroke-linejoin="round"/>
<path d="M39.15 11.02V10.44C38 9.74503 37.055 8.39003 37.055 6.95003C37.055 4.47503 39.33 2.53503 41.9 3.09503C43.03 3.34503 44.02 4.09503 44.535 5.13003C45.58 7.23003 44.48 9.46003 42.865 10.435V11.015C42.865 11.16 42.92 11.495 42.385 11.495H39.63C39.08 11.5 39.15 11.285 39.15 11.02Z" stroke="#292D32" stroke-width="0.9" stroke-linecap="round" stroke-linejoin="round"/>
<path d="M39.25 13C40.395 12.675 41.605 12.675 42.75 13" stroke="#292D32" stroke-width="0.9" stroke-linecap="round" stroke-linejoin="round"/>
</g>
<g clip-path="url(#clip1_43_2)">
<path d="M4.99163 26.272C4.15963 26.272 3.74363 25.9147 3.74363 25.2C3.74363 24.9653 3.77563 24.6987 3.83963 24.4C3.91429 24.0907 4.01563 23.696 4.14363 23.216C4.29296 22.7147 4.40496 22.288 4.47963 21.936C4.55429 21.584 4.59163 21.2693 4.59163 20.992C4.59163 20.2667 4.27163 19.904 3.63163 19.904C3.46096 19.904 3.28496 19.9253 3.10363 19.968L1.82363 26H-0.480375L1.69563 15.824L4.06363 15.504L3.27963 19.2H3.40763C3.82363 19.2 4.20763 19.056 4.55963 18.768C4.91163 18.48 5.18363 18.1227 5.37563 17.696C5.57829 17.2587 5.67963 16.832 5.67963 16.416C5.67963 15.9253 5.53029 15.5253 5.23163 15.216C4.94363 14.896 4.50629 14.736 3.91963 14.736C3.05563 14.736 2.29829 14.8907 1.64763 15.2C0.996958 15.5093 0.490292 15.9573 0.127625 16.544C-0.224375 17.1307 -0.400375 17.824 -0.400375 18.624C-0.400375 19.0187 -0.363042 19.296 -0.288375 19.456C-0.213708 19.6053 -0.176375 19.6907 -0.176375 19.712C-0.752375 19.712 -1.18437 19.5947 -1.47237 19.36C-1.74971 19.1147 -1.88837 18.7147 -1.88837 18.16C-1.88837 17.4773 -1.61104 16.816 -1.05637 16.176C-0.491042 15.5253 0.228958 15.0027 1.10363 14.608C1.97829 14.2027 2.85296 14 3.72763 14C4.52763 14 5.19963 14.1173 5.74363 14.352C6.28763 14.5867 6.69296 14.9013 6.95963 15.296C7.22629 15.68 7.35963 16.1013 7.35963 16.56C7.35963 17.0613 7.20496 17.5627 6.89563 18.064C6.58629 18.5653 6.16496 18.976 5.63163 19.296C6.03696 19.4133 6.31963 19.6107 6.47963 19.888C6.65029 20.1547 6.73563 20.4907 6.73563 20.896C6.73563 21.2053 6.69829 21.536 6.62363 21.888C6.54896 22.2293 6.44229 22.656 6.30363 23.168C6.21829 23.4987 6.13829 23.824 6.06363 24.144C5.98896 24.464 5.95163 24.7307 5.95163 24.944C5.95163 25.1893 6.00496 25.408 6.11163 25.6C6.22896 25.792 6.38363 25.9253 6.57563 26C5.92496 26.1813 5.39696 26.272 4.99163 26.272ZM9.913 26.096C9.12367 26.096 8.51033 25.8933 8.073 25.488C7.63567 25.072 7.417 24.4267 7.417 23.552C7.417 22.816 7.561 22.0053 7.849 21.12C8.137 20.2347 8.60633 19.472 9.257 18.832C9.90767 18.1813 10.7343 17.856 11.737 17.856C12.9103 17.856 13.497 18.368 13.497 19.392C13.497 19.9893 13.3263 20.5387 12.985 21.04C12.6437 21.5413 12.1903 21.9467 11.625 22.256C11.0597 22.5547 10.457 22.7253 9.817 22.768C9.79567 23.088 9.785 23.3013 9.785 23.408C9.785 23.9307 9.87567 24.288 10.057 24.48C10.2383 24.6613 10.5317 24.752 10.937 24.752C11.513 24.752 12.0037 24.6187 12.409 24.352C12.825 24.0853 13.2783 23.68 13.769 23.136H14.313C13.129 25.1093 11.6623 26.096 9.913 26.096ZM9.945 22C10.3397 21.9787 10.713 21.84 11.065 21.584C11.4277 21.328 11.7157 21.0027 11.929 20.608C12.153 20.2133 12.265 19.7973 12.265 19.36C12.265 18.9227 12.1317 18.704 11.865 18.704C11.481 18.704 11.1023 19.04 10.729 19.712C10.3663 20.384 10.105 21.1467 9.945 22ZM15.6856 26.096C15.0776 26.096 14.571 25.888 14.1656 25.472C13.7603 25.056 13.5576 24.4053 13.5576 23.52C13.5576 22.7307 13.7123 21.904 14.0216 21.04C14.3416 20.1653 14.811 19.4293 15.4296 18.832C16.059 18.224 16.8056 17.92 17.6696 17.92C18.107 17.92 18.4323 17.9947 18.6456 18.144C18.859 18.2933 18.9656 18.4907 18.9656 18.736V18.848L19.1416 18H21.4456L20.2936 23.44C20.251 23.6 20.2296 23.7707 20.2296 23.952C20.2296 24.4107 20.4483 24.64 20.8856 24.64C21.1843 24.64 21.4403 24.5013 21.6536 24.224C21.8776 23.9467 22.0536 23.584 22.1816 23.136H22.8536C22.459 24.288 21.9683 25.072 21.3816 25.488C20.8056 25.8933 20.2243 26.096 19.6376 26.096C19.1896 26.096 18.827 25.9733 18.5496 25.728C18.283 25.472 18.123 25.104 18.0696 24.624C17.7603 25.0613 17.4136 25.4187 17.0296 25.696C16.6563 25.9627 16.2083 26.096 15.6856 26.096ZM16.7256 24.544C16.9923 24.544 17.2536 24.4213 17.5096 24.176C17.7763 23.92 17.9576 23.5733 18.0536 23.136L18.8216 19.52C18.8216 19.3813 18.7683 19.248 18.6616 19.12C18.555 18.9813 18.3896 18.912 18.1656 18.912C17.739 18.912 17.355 19.1627 17.0136 19.664C16.6723 20.1547 16.4056 20.752 16.2136 21.456C16.0216 22.1493 15.9256 22.7627 15.9256 23.296C15.9256 23.8293 16.0003 24.1707 16.1496 24.32C16.3096 24.4693 16.5016 24.544 16.7256 24.544ZM24.4755 26.096C23.6862 26.096 23.0728 25.8933 22.6355 25.488C22.1982 25.072 21.9795 24.4267 21.9795 23.552C21.9795 22.816 22.1235 22.0053 22.4115 21.12C22.7102 20.2347 23.1795 19.472 23.8195 18.832C24.4702 18.1813 25.2915 17.856 26.2835 17.856C26.9235 17.856 27.3768 17.9947 27.6435 18.272C27.9208 18.5493 28.0595 18.9013 28.0595 19.328C28.0595 19.7013 27.9795 19.9893 27.8195 20.192C27.6595 20.3947 27.4568 20.496 27.2115 20.496C27.0302 20.496 26.8435 20.432 26.6515 20.304C26.7795 19.952 26.8435 19.6373 26.8435 19.36C26.8435 19.1573 26.8062 18.9973 26.7315 18.88C26.6568 18.7627 26.5448 18.704 26.3955 18.704C26.0755 18.704 25.7555 18.9653 25.4355 19.488C25.1155 20.0107 24.8542 20.6453 24.6515 21.392C24.4488 22.1387 24.3475 22.8107 24.3475 23.408C24.3475 23.9307 24.4382 24.288 24.6195 24.48C24.8008 24.6613 25.0942 24.752 25.4995 24.752C26.0755 24.752 26.5662 24.6187 26.9715 24.352C27.3875 24.0853 27.8408 23.68 28.3315 23.136H28.8755C27.6915 25.1093 26.2248 26.096 24.4755 26.096ZM29.8321 26.096C29.2881 26.096 28.8828 25.9307 28.6161 25.6C28.3601 25.2693 28.2321 24.832 28.2321 24.288C28.2321 24.0107 28.2641 23.728 28.3281 23.44L29.3521 18.64H28.8241L28.9521 18H29.4801L29.9601 15.792L32.3281 15.472C32.2321 15.8773 32.1788 16.1173 32.1681 16.192C32.0935 16.4907 31.9655 17.0933 31.7841 18H32.7441L32.6161 18.64H31.6561L30.6321 23.44C30.5788 23.6747 30.5521 23.8613 30.5521 24C30.5521 24.384 30.7388 24.576 31.1121 24.576C31.3041 24.576 31.4428 24.56 31.5281 24.528C31.3148 25.1467 31.0641 25.5627 30.7761 25.776C30.4881 25.9893 30.1735 26.096 29.8321 26.096ZM39.8988 15.824L42.2668 15.504L41.1308 20.848C41.6428 20.8053 42.1121 20.5813 42.5388 20.176C42.9761 19.7707 43.3174 19.2693 43.5628 18.672C43.8081 18.0747 43.9308 17.488 43.9308 16.912C43.9308 16.272 43.7654 15.7493 43.4348 15.344C43.1041 14.9387 42.6081 14.736 41.9468 14.736C40.6454 14.736 39.6268 15.0773 38.8908 15.76C38.1654 16.4427 37.8028 17.3973 37.8028 18.624C37.8028 19.0187 37.8401 19.296 37.9148 19.456C37.9894 19.6053 38.0268 19.6907 38.0268 19.712C37.4508 19.712 37.0188 19.5947 36.7308 19.36C36.4534 19.1147 36.3148 18.7147 36.3148 18.16C36.3148 17.4773 36.5921 16.816 37.1468 16.176C37.7121 15.5253 38.4321 15.0027 39.3068 14.608C40.1814 14.2027 41.0561 14 41.9308 14C42.7734 14 43.4774 14.144 44.0428 14.432C44.6081 14.72 45.0241 15.104 45.2908 15.584C45.5681 16.0533 45.7068 16.576 45.7068 17.152C45.7068 17.8453 45.5148 18.5227 45.1308 19.184C44.7574 19.8453 44.2188 20.3893 43.5148 20.816C42.8108 21.232 42.0001 21.44 41.0828 21.44H41.0028L40.0268 26H37.7228L39.8988 15.824ZM46.4786 18H48.7826L48.5746 18.992C48.9373 18.672 49.2626 18.4267 49.5506 18.256C49.8493 18.0853 50.1693 18 50.5106 18C50.852 18 51.1186 18.1173 51.3106 18.352C51.5133 18.5867 51.6146 18.8693 51.6146 19.2C51.6146 19.5093 51.5133 19.7813 51.3106 20.016C51.108 20.2507 50.8253 20.368 50.4626 20.368C50.228 20.368 50.068 20.3147 49.9826 20.208C49.908 20.0907 49.8493 19.9253 49.8066 19.712C49.7746 19.5733 49.7426 19.472 49.7106 19.408C49.6786 19.344 49.62 19.312 49.5346 19.312C49.3106 19.312 49.1186 19.36 48.9586 19.456C48.8093 19.5413 48.612 19.696 48.3666 19.92L47.0866 26H44.7826L46.4786 18ZM53.7423 26.064C52.9529 26.064 52.3289 25.8613 51.8703 25.456C51.4116 25.0507 51.1822 24.4107 51.1822 23.536C51.1822 22.8107 51.3316 22.0053 51.6303 21.12C51.9289 20.2347 52.4089 19.472 53.0703 18.832C53.7316 18.1813 54.5636 17.856 55.5663 17.856C56.9316 17.856 57.6143 18.7093 57.6143 20.416V20.432C57.6463 20.4427 57.7049 20.448 57.7903 20.448C58.1423 20.448 58.5476 20.3573 59.0063 20.176C59.4649 19.984 59.8809 19.7547 60.2543 19.488L60.3983 19.92C60.0889 20.2507 59.6836 20.5333 59.1823 20.768C58.6916 20.992 58.1529 21.152 57.5663 21.248C57.4809 22.2187 57.2623 23.0667 56.9103 23.792C56.5583 24.5173 56.1049 25.0773 55.5503 25.472C54.9956 25.8667 54.3929 26.064 53.7423 26.064ZM54.3823 24.624C54.6383 24.624 54.8943 24.48 55.1503 24.192C55.4063 23.8933 55.6303 23.4933 55.8223 22.992C56.0143 22.48 56.1529 21.9147 56.2383 21.296C55.9503 21.232 55.8063 21.008 55.8063 20.624C55.8063 20.1867 55.9716 19.8987 56.3023 19.76C56.2809 19.408 56.2276 19.168 56.1423 19.04C56.0569 18.9013 55.9076 18.832 55.6943 18.832C55.3423 18.832 55.0009 19.088 54.6703 19.6C54.3396 20.112 54.0729 20.7253 53.8703 21.44C53.6676 22.1547 53.5663 22.784 53.5663 23.328C53.5663 23.84 53.6249 24.1867 53.7423 24.368C53.8596 24.5387 54.0729 24.624 54.3823 24.624ZM60.9815 17.12C60.6295 17.12 60.3308 16.9973 60.0855 16.752C59.8402 16.5067 59.7175 16.208 59.7175 15.856C59.7175 15.504 59.8402 15.2053 60.0855 14.96C60.3308 14.704 60.6295 14.576 60.9815 14.576C61.3335 14.576 61.6322 14.704 61.8775 14.96C62.1335 15.2053 62.2615 15.504 62.2615 15.856C62.2615 16.208 62.1335 16.5067 61.8775 16.752C61.6322 16.9973 61.3335 17.12 60.9815 17.12ZM56.9975 30C56.4855 30 56.0588 29.8667 55.7175 29.6C55.3762 29.3333 55.2055 28.9493 55.2055 28.448C55.2055 27.4133 56.0802 26.6187 57.8295 26.064L59.5415 18H61.8455L60.2615 25.424C60.7735 25.2533 61.1842 24.9973 61.4935 24.656C61.8028 24.3147 62.0642 23.808 62.2775 23.136H62.9495C62.6615 24.0853 62.2722 24.784 61.7815 25.232C61.2908 25.6693 60.7362 25.968 60.1175 26.128L59.8775 27.28C59.6642 28.3147 59.2962 29.024 58.7735 29.408C58.2508 29.8027 57.6588 30 56.9975 30ZM56.6295 28.752C56.8108 28.752 56.9868 28.6293 57.1575 28.384C57.3282 28.1387 57.4615 27.7867 57.5575 27.328L57.6535 26.864C56.6082 27.248 56.0855 27.7013 56.0855 28.224C56.0855 28.3627 56.1335 28.4853 56.2295 28.592C56.3255 28.6987 56.4588 28.752 56.6295 28.752ZM64.5693 26.096C63.7799 26.096 63.1666 25.8933 62.7293 25.488C62.2919 25.072 62.0732 24.4267 62.0732 23.552C62.0732 22.816 62.2172 22.0053 62.5053 21.12C62.7933 20.2347 63.2626 19.472 63.9133 18.832C64.5639 18.1813 65.3906 17.856 66.3932 17.856C67.5666 17.856 68.1533 18.368 68.1533 19.392C68.1533 19.9893 67.9826 20.5387 67.6413 21.04C67.2999 21.5413 66.8466 21.9467 66.2812 22.256C65.7159 22.5547 65.1133 22.7253 64.4733 22.768C64.4519 23.088 64.4413 23.3013 64.4413 23.408C64.4413 23.9307 64.5319 24.288 64.7133 24.48C64.8946 24.6613 65.1879 24.752 65.5933 24.752C66.1693 24.752 66.6599 24.6187 67.0653 24.352C67.4813 24.0853 67.9346 23.68 68.4253 23.136H68.9693C67.7853 25.1093 66.3186 26.096 64.5693 26.096ZM64.6013 22C64.9959 21.9787 65.3693 21.84 65.7213 21.584C66.0839 21.328 66.3719 21.0027 66.5853 20.608C66.8093 20.2133 66.9213 19.7973 66.9213 19.36C66.9213 18.9227 66.7879 18.704 66.5213 18.704C66.1373 18.704 65.7586 19.04 65.3853 19.712C65.0226 20.384 64.7613 21.1467 64.6013 22ZM70.7099 26.096C69.9205 26.096 69.3072 25.8933 68.8699 25.488C68.4325 25.072 68.2139 24.4267 68.2139 23.552C68.2139 22.816 68.3579 22.0053 68.6459 21.12C68.9445 20.2347 69.4139 19.472 70.0539 18.832C70.7045 18.1813 71.5259 17.856 72.5179 17.856C73.1579 17.856 73.6112 17.9947 73.8779 18.272C74.1552 18.5493 74.2939 18.9013 74.2939 19.328C74.2939 19.7013 74.2139 19.9893 74.0539 20.192C73.8939 20.3947 73.6912 20.496 73.4459 20.496C73.2645 20.496 73.0779 20.432 72.8859 20.304C73.0139 19.952 73.0779 19.6373 73.0779 19.36C73.0779 19.1573 73.0405 18.9973 72.9659 18.88C72.8912 18.7627 72.7792 18.704 72.6299 18.704C72.3099 18.704 71.9899 18.9653 71.6699 19.488C71.3499 20.0107 71.0885 20.6453 70.8859 21.392C70.6832 22.1387 70.5819 22.8107 70.5819 23.408C70.5819 23.9307 70.6725 24.288 70.8539 24.48C71.0352 24.6613 71.3285 24.752 71.7339 24.752C72.3099 24.752 72.8005 24.6187 73.2059 24.352C73.6219 24.0853 74.0752 23.68 74.5659 23.136H75.1099C73.9259 25.1093 72.4592 26.096 70.7099 26.096ZM76.0665 26.096C75.5225 26.096 75.1172 25.9307 74.8505 25.6C74.5945 25.2693 74.4665 24.832 74.4665 24.288C74.4665 24.0107 74.4985 23.728 74.5625 23.44L75.5865 18.64H75.0585L75.1865 18H75.7145L76.1945 15.792L78.5625 15.472C78.4665 15.8773 78.4132 16.1173 78.4025 16.192C78.3278 16.4907 78.1998 17.0933 78.0185 18H78.9785L78.8505 18.64H77.8905L76.8665 23.44C76.8132 23.6747 76.7865 23.8613 76.7865 24C76.7865 24.384 76.9732 24.576 77.3465 24.576C77.5385 24.576 77.6772 24.56 77.7625 24.528C77.5492 25.1467 77.2985 25.5627 77.0105 25.776C76.7225 25.9893 76.4078 26.096 76.0665 26.096Z" fill="black"/>
</g>
<defs>
<clipPath id="clip0_43_2">
<rect width="14" height="14" fill="white" transform="translate(34)"/>
</clipPath>
<clipPath id="clip1_43_2">
<rect width="77" height="20" fill="white" transform="translate(0 10)"/>
</clipPath>
</defs>
</svg>
