<svg width="298" height="46" viewBox="0 0 298 46" fill="none" xmlns="http://www.w3.org/2000/svg">
<path d="M85.4648 36.7167C83.5142 36.7167 81.7915 36.3874 80.2968 35.7287C78.8022 35.0447 77.6242 34.0821 76.7628 32.8407C75.9015 31.5741 75.4582 30.0414 75.4328 28.2427H80.5628C80.6135 29.4841 81.0568 30.5354 81.8928 31.3967C82.7542 32.2327 83.9322 32.6507 85.4268 32.6507C86.7188 32.6507 87.7448 32.3467 88.5048 31.7387C89.2648 31.1054 89.6448 30.2694 89.6448 29.2307C89.6448 28.1414 89.3028 27.2927 88.6188 26.6847C87.9602 26.0767 87.0735 25.5827 85.9588 25.2027C84.8442 24.8227 83.6535 24.4174 82.3868 23.9867C80.3348 23.2774 78.7642 22.3654 77.6748 21.2507C76.6108 20.1361 76.0788 18.6541 76.0788 16.8047C76.0535 15.2341 76.4208 13.8914 77.1808 12.7767C77.9662 11.6367 79.0302 10.7627 80.3728 10.1547C81.7155 9.52141 83.2608 9.20474 85.0088 9.20474C86.7822 9.20474 88.3402 9.52141 89.6828 10.1547C91.0508 10.7881 92.1148 11.6747 92.8748 12.8147C93.6602 13.9547 94.0782 15.3101 94.1288 16.8807H88.9228C88.8975 15.9434 88.5302 15.1201 87.8208 14.4107C87.1368 13.6761 86.1742 13.3087 84.9328 13.3087C83.8688 13.2834 82.9695 13.5494 82.2348 14.1067C81.5255 14.6387 81.1708 15.4241 81.1708 16.4627C81.1708 17.3494 81.4495 18.0587 82.0068 18.5907C82.5642 19.0974 83.3242 19.5281 84.2868 19.8827C85.2495 20.2374 86.3515 20.6174 87.5928 21.0227C88.9102 21.4787 90.1135 22.0107 91.2028 22.6187C92.2922 23.2267 93.1662 24.0374 93.8248 25.0507C94.4835 26.0387 94.8128 27.3181 94.8128 28.8887C94.8128 30.2821 94.4582 31.5741 93.7488 32.7647C93.0395 33.9554 91.9882 34.9181 90.5948 35.6527C89.2015 36.3621 87.4915 36.7167 85.4648 36.7167ZM98.9427 44.6207V17.4127H103.275L103.807 20.1107C104.415 19.2747 105.213 18.5401 106.201 17.9067C107.214 17.2734 108.519 16.9567 110.115 16.9567C111.888 16.9567 113.471 17.3874 114.865 18.2487C116.258 19.1101 117.36 20.2881 118.171 21.7827C118.981 23.2774 119.387 24.9747 119.387 26.8747C119.387 28.7747 118.981 30.4721 118.171 31.9667C117.36 33.4361 116.258 34.6014 114.865 35.4627C113.471 36.2987 111.888 36.7167 110.115 36.7167C108.696 36.7167 107.455 36.4507 106.391 35.9187C105.327 35.3867 104.465 34.6394 103.807 33.6767V44.6207H98.9427ZM109.089 32.4607C110.634 32.4607 111.913 31.9414 112.927 30.9027C113.94 29.8641 114.447 28.5214 114.447 26.8747C114.447 25.2281 113.94 23.8727 112.927 22.8087C111.913 21.7447 110.634 21.2127 109.089 21.2127C107.518 21.2127 106.226 21.7447 105.213 22.8087C104.225 23.8474 103.731 25.1901 103.731 26.8367C103.731 28.4834 104.225 29.8387 105.213 30.9027C106.226 31.9414 107.518 32.4607 109.089 32.4607ZM130.23 36.7167C128.608 36.7167 127.278 36.4634 126.24 35.9567C125.201 35.4247 124.428 34.7281 123.922 33.8667C123.415 33.0054 123.162 32.0554 123.162 31.0167C123.162 29.2687 123.846 27.8501 125.214 26.7607C126.582 25.6714 128.634 25.1267 131.37 25.1267H136.158V24.6707C136.158 23.3787 135.79 22.4287 135.056 21.8207C134.321 21.2127 133.409 20.9087 132.32 20.9087C131.332 20.9087 130.47 21.1494 129.736 21.6307C129.001 22.0867 128.545 22.7707 128.368 23.6827H123.618C123.744 22.3147 124.2 21.1241 124.986 20.1107C125.796 19.0974 126.835 18.3247 128.102 17.7927C129.368 17.2354 130.787 16.9567 132.358 16.9567C135.043 16.9567 137.158 17.6281 138.704 18.9707C140.249 20.3134 141.022 22.2134 141.022 24.6707V36.2607H136.88L136.424 33.2207C135.866 34.2341 135.081 35.0701 134.068 35.7287C133.08 36.3874 131.8 36.7167 130.23 36.7167ZM131.332 32.9167C132.725 32.9167 133.802 32.4607 134.562 31.5487C135.347 30.6367 135.841 29.5094 136.044 28.1667H131.902C130.61 28.1667 129.685 28.4074 129.128 28.8887C128.57 29.3447 128.292 29.9147 128.292 30.5987C128.292 31.3334 128.57 31.9034 129.128 32.3087C129.685 32.7141 130.42 32.9167 131.332 32.9167ZM154.897 36.7167C152.972 36.7167 151.275 36.2987 149.805 35.4627C148.336 34.6267 147.171 33.4614 146.309 31.9667C145.473 30.4721 145.055 28.7621 145.055 26.8367C145.055 24.9114 145.473 23.2014 146.309 21.7067C147.171 20.2121 148.336 19.0467 149.805 18.2107C151.275 17.3747 152.972 16.9567 154.897 16.9567C157.304 16.9567 159.331 17.5901 160.977 18.8567C162.624 20.0981 163.675 21.8207 164.131 24.0247H159.001C158.748 23.1127 158.241 22.4034 157.481 21.8967C156.747 21.3647 155.873 21.0987 154.859 21.0987C153.517 21.0987 152.377 21.6054 151.439 22.6187C150.502 23.6321 150.033 25.0381 150.033 26.8367C150.033 28.6354 150.502 30.0414 151.439 31.0547C152.377 32.0681 153.517 32.5747 154.859 32.5747C155.873 32.5747 156.747 32.3214 157.481 31.8147C158.241 31.3081 158.748 30.5861 159.001 29.6487H164.131C163.675 31.7767 162.624 33.4867 160.977 34.7787C159.331 36.0707 157.304 36.7167 154.897 36.7167ZM177.607 36.7167C175.707 36.7167 174.022 36.3114 172.553 35.5007C171.083 34.6901 169.931 33.5501 169.095 32.0807C168.259 30.6114 167.841 28.9141 167.841 26.9887C167.841 25.0381 168.246 23.3027 169.057 21.7827C169.893 20.2627 171.033 19.0847 172.477 18.2487C173.946 17.3874 175.669 16.9567 177.645 16.9567C179.494 16.9567 181.128 17.3621 182.547 18.1727C183.965 18.9834 185.067 20.0981 185.853 21.5167C186.663 22.9101 187.069 24.4681 187.069 26.1907C187.069 26.4694 187.056 26.7607 187.031 27.0647C187.031 27.3687 187.018 27.6854 186.993 28.0147H172.667C172.768 29.4841 173.275 30.6367 174.187 31.4727C175.124 32.3087 176.251 32.7267 177.569 32.7267C178.557 32.7267 179.38 32.5114 180.039 32.0807C180.723 31.6247 181.229 31.0421 181.559 30.3327H186.499C186.144 31.5234 185.549 32.6127 184.713 33.6007C183.902 34.5634 182.889 35.3234 181.673 35.8807C180.482 36.4381 179.127 36.7167 177.607 36.7167ZM177.645 20.9087C176.454 20.9087 175.403 21.2507 174.491 21.9347C173.579 22.5934 172.996 23.6067 172.743 24.9747H182.129C182.053 23.7334 181.597 22.7454 180.761 22.0107C179.925 21.2761 178.886 20.9087 177.645 20.9087ZM191.273 36.2607V9.66074H201.951C204.713 9.66074 206.815 10.3067 208.259 11.5987C209.729 12.8654 210.463 14.4994 210.463 16.5007C210.463 18.1727 210.007 19.5154 209.095 20.5287C208.209 21.5167 207.119 22.1881 205.827 22.5427C207.347 22.8467 208.601 23.6067 209.589 24.8227C210.577 26.0134 211.071 27.4067 211.071 29.0027C211.071 31.1054 210.311 32.8407 208.791 34.2087C207.271 35.5767 205.118 36.2607 202.331 36.2607H191.273ZM196.137 20.8327H201.229C202.597 20.8327 203.649 20.5161 204.383 19.8827C205.118 19.2494 205.485 18.3501 205.485 17.1847C205.485 16.0701 205.118 15.1961 204.383 14.5627C203.674 13.9041 202.597 13.5747 201.153 13.5747H196.137V20.8327ZM196.137 32.3087H201.571C203.015 32.3087 204.13 31.9794 204.915 31.3207C205.726 30.6367 206.131 29.6867 206.131 28.4707C206.131 27.2294 205.713 26.2541 204.877 25.5447C204.041 24.8354 202.914 24.4807 201.495 24.4807H196.137V32.3087ZM224.176 36.7167C222.352 36.7167 220.705 36.2987 219.236 35.4627C217.792 34.6267 216.639 33.4741 215.778 32.0047C214.942 30.5101 214.524 28.7874 214.524 26.8367C214.524 24.8861 214.955 23.1761 215.816 21.7067C216.677 20.2121 217.83 19.0467 219.274 18.2107C220.743 17.3747 222.39 16.9567 224.214 16.9567C226.013 16.9567 227.634 17.3747 229.078 18.2107C230.547 19.0467 231.7 20.2121 232.536 21.7067C233.397 23.1761 233.828 24.8861 233.828 26.8367C233.828 28.7874 233.397 30.5101 232.536 32.0047C231.7 33.4741 230.547 34.6267 229.078 35.4627C227.609 36.2987 225.975 36.7167 224.176 36.7167ZM224.176 32.4987C225.443 32.4987 226.545 32.0301 227.482 31.0927C228.419 30.1301 228.888 28.7114 228.888 26.8367C228.888 24.9621 228.419 23.5561 227.482 22.6187C226.545 21.6561 225.455 21.1747 224.214 21.1747C222.922 21.1747 221.807 21.6561 220.87 22.6187C219.958 23.5561 219.502 24.9621 219.502 26.8367C219.502 28.7114 219.958 30.1301 220.87 31.0927C221.807 32.0301 222.909 32.4987 224.176 32.4987ZM244.675 36.7167C243.054 36.7167 241.724 36.4634 240.685 35.9567C239.646 35.4247 238.874 34.7281 238.367 33.8667C237.86 33.0054 237.607 32.0554 237.607 31.0167C237.607 29.2687 238.291 27.8501 239.659 26.7607C241.027 25.6714 243.079 25.1267 245.815 25.1267H250.603V24.6707C250.603 23.3787 250.236 22.4287 249.501 21.8207C248.766 21.2127 247.854 20.9087 246.765 20.9087C245.777 20.9087 244.916 21.1494 244.181 21.6307C243.446 22.0867 242.99 22.7707 242.813 23.6827H238.063C238.19 22.3147 238.646 21.1241 239.431 20.1107C240.242 19.0974 241.28 18.3247 242.547 17.7927C243.814 17.2354 245.232 16.9567 246.803 16.9567C249.488 16.9567 251.604 17.6281 253.149 18.9707C254.694 20.3134 255.467 22.2134 255.467 24.6707V36.2607H251.325L250.869 33.2207C250.312 34.2341 249.526 35.0701 248.513 35.7287C247.525 36.3874 246.246 36.7167 244.675 36.7167ZM245.777 32.9167C247.17 32.9167 248.247 32.4607 249.007 31.5487C249.792 30.6367 250.286 29.5094 250.489 28.1667H246.347C245.055 28.1667 244.13 28.4074 243.573 28.8887C243.016 29.3447 242.737 29.9147 242.737 30.5987C242.737 31.3334 243.016 31.9034 243.573 32.3087C244.13 32.7141 244.865 32.9167 245.777 32.9167ZM260.109 36.2607V17.4127H264.441L264.897 20.9467C265.581 19.7307 266.505 18.7681 267.671 18.0587C268.861 17.3241 270.255 16.9567 271.851 16.9567V22.0867H270.483C269.419 22.0867 268.469 22.2514 267.633 22.5807C266.797 22.9101 266.138 23.4801 265.657 24.2907C265.201 25.1014 264.973 26.2287 264.973 27.6727V36.2607H260.109ZM283.505 36.7167C281.732 36.7167 280.148 36.2861 278.755 35.4247C277.362 34.5634 276.26 33.3854 275.449 31.8907C274.638 30.3961 274.233 28.6987 274.233 26.7987C274.233 24.8987 274.638 23.2141 275.449 21.7447C276.26 20.2501 277.362 19.0847 278.755 18.2487C280.148 17.3874 281.732 16.9567 283.505 16.9567C284.924 16.9567 286.165 17.2227 287.229 17.7547C288.293 18.2867 289.154 19.0341 289.813 19.9967V8.90074H294.677V36.2607H290.345L289.813 33.5627C289.205 34.3987 288.394 35.1334 287.381 35.7667C286.393 36.4001 285.101 36.7167 283.505 36.7167ZM284.531 32.4607C286.102 32.4607 287.381 31.9414 288.369 30.9027C289.382 29.8387 289.889 28.4834 289.889 26.8367C289.889 25.1901 289.382 23.8474 288.369 22.8087C287.381 21.7447 286.102 21.2127 284.531 21.2127C282.986 21.2127 281.706 21.7321 280.693 22.7707C279.68 23.8094 279.173 25.1521 279.173 26.7987C279.173 28.4454 279.68 29.8007 280.693 30.8647C281.706 31.9287 282.986 32.4607 284.531 32.4607Z" fill="#170F49"/>
<path d="M25.5647 45.2203C25.2175 45.2203 24.853 45.1856 24.4884 45.0814C22.1104 44.4912 20.6523 42.0785 21.2425 39.7004L30.1299 4.15078C30.7374 1.77271 33.1502 0.331984 35.5283 0.904803C37.9063 1.51234 39.3471 3.92513 38.7569 6.30321L29.8695 41.8528C29.3661 43.8663 27.5608 45.2203 25.5647 45.2203Z" fill="#9328FF"/>
<path d="M46.4681 36.3331C45.3225 36.3331 44.1942 35.8991 43.3263 35.0312C41.5905 33.2954 41.5905 30.4834 43.3263 28.7476L49.0718 23.002L43.3263 17.2564C41.5905 15.5206 41.5905 12.7086 43.3263 10.9728C45.0621 9.23694 47.8741 9.23694 49.6099 10.9728L58.4973 19.8602C60.2332 21.596 60.2332 24.408 58.4973 26.1438L49.6099 35.0312C48.742 35.8991 47.6138 36.3331 46.4681 36.3331Z" fill="#4A3AFF"/>
<path d="M13.5323 36.3331C12.3866 36.3331 11.2583 35.8991 10.3904 35.0312L1.50304 26.1438C-0.232783 24.408 -0.232783 21.596 1.50304 19.8602L10.3904 10.9728C12.1263 9.23694 14.9383 9.23694 16.6741 10.9728C18.4099 12.7086 18.4099 15.5206 16.6741 17.2564L10.9285 23.002L16.6741 28.7476C18.4099 30.4834 18.4099 33.2954 16.6741 35.0312C15.8062 35.8991 14.6779 36.3331 13.5323 36.3331Z" fill="#4A3AFF"/>
</svg>
